<?xml version="1.0" standalone="no"?>
<!DOCTYPE svg PUBLIC "-//W3C//DTD SVG 20010904//EN"
 "http://www.w3.org/TR/2001/REC-SVG-20010904/DTD/svg10.dtd">
<svg version="1.0" xmlns="http://www.w3.org/2000/svg"
 width="128.000000pt" height="128.000000pt" viewBox="0 0 128.000000 128.000000"
 preserveAspectRatio="xMidYMid meet">

<g transform="translate(0.000000,128.000000) scale(0.100000,-0.100000)"
fill="#000000" stroke="none">
<path d="M539 1007 c-104 -30 -199 -112 -247 -215 -23 -49 -27 -70 -27 -152 0
-87 3 -101 32 -161 39 -80 111 -150 191 -187 49 -23 70 -27 152 -27 83 0 103
4 155 28 147 69 231 206 223 365 -7 143 -92 268 -224 329 -67 30 -185 40 -255
20z m221 -88 c65 -29 108 -65 141 -117 16 -25 29 -50 29 -54 0 -4 -34 -8 -75
-8 -72 0 -75 -1 -75 -23 0 -13 11 -34 25 -47 20 -19 25 -33 25 -71 0 -42 -3
-48 -22 -51 -18 -2 -24 -10 -26 -39 -2 -26 -13 -46 -41 -73 -32 -31 -42 -35
-69 -30 l-32 7 0 68 0 69 -70 0 -70 0 0 63 c0 56 3 66 28 90 25 24 36 27 93
27 64 0 65 0 114 50 l49 50 -75 0 c-67 0 -78 -3 -98 -24 -14 -15 -30 -22 -42
-19 -16 5 -19 15 -19 72 0 37 3 71 7 74 3 4 40 7 82 7 55 0 89 -6 121 -21z"/>
</g>
</svg>
